<svg width="236" height="236" viewBox="0 0 236 236" fill="none" xmlns="http://www.w3.org/2000/svg">
<path d="M33.6797 104.359V97.8448C47.4742 94.1655 61.4326 91.6269 75.5549 90.2289C89.6756 88.8325 103.854 88.1344 118.089 88.1344C132.324 88.1344 146.483 88.853 160.564 90.2903C174.645 91.7293 188.565 94.2474 202.321 97.8448V104.359C199.126 103.54 195.868 102.809 192.549 102.167C189.231 101.526 185.932 100.864 182.655 100.18V130.049H176.386V99.0223C166.716 97.4998 157.027 96.3493 147.316 95.5708C137.606 94.7924 127.875 94.4031 118.123 94.4031C108.29 94.4031 98.4977 94.7514 88.7464 95.4479C78.995 96.1444 69.2845 97.254 59.6151 98.7765V130.049H53.3464V99.9344C50.0686 100.59 46.7908 101.286 43.513 102.024C40.2352 102.761 36.9575 103.54 33.6797 104.359ZM74.2422 192.491L86.0004 120.073C88.2408 119.84 89.279 119.744 89.1151 119.785C88.9512 119.826 89.9755 119.765 92.188 119.601L80.5109 192.491H74.2422ZM98.2109 43.5156H104.48L101.407 62.6906C99.0664 62.8545 97.9807 62.9365 98.1495 62.9365C98.3183 62.9365 97.2735 63.1003 95.0151 63.4281L98.2109 43.5156ZM114.928 192.491H121.196V169.382H114.928V192.491ZM114.928 139.268H121.196V119.601H114.928V139.268ZM131.644 43.5156H137.913L141.109 63.4281C138.896 63.2642 137.872 63.1413 138.036 63.0594C138.2 62.9774 137.19 62.8611 135.007 62.7103L131.644 43.5156ZM155.613 192.491L143.936 119.601C146.148 119.929 147.214 120.011 147.132 119.847C147.05 119.683 148.129 119.717 150.369 119.95L161.882 192.491H155.613Z" fill="#E3E3E3"/>
</svg>
