<svg width="236" height="236" viewBox="0 0 236 236" fill="none" xmlns="http://www.w3.org/2000/svg">
<path d="M118.323 96.25L81.9307 132.756L85.7734 136.598L115.498 107.439V193.674H121.262V107.439L150.873 136.598L154.829 132.756L118.323 96.25ZM49.6068 157.62C46.4422 151.894 44.0499 145.927 42.4299 139.72C40.81 133.514 40 127.087 40 120.436C40 109.63 42.0449 99.4605 46.1348 89.9276C50.2246 80.3947 55.8078 72.0884 62.8845 65.0088C69.9611 57.9292 78.2628 52.3248 87.7897 48.1958C97.3181 44.0653 107.483 42 118.285 42C129.085 42 139.256 44.0653 148.796 48.1958C158.337 52.3248 166.649 57.9292 173.733 65.0088C180.819 72.0884 186.428 80.3947 190.56 89.9276C194.693 99.4605 196.76 109.63 196.76 120.436C196.76 127.011 195.931 133.401 194.273 139.607C192.616 145.814 190.242 151.819 187.153 157.62L182.971 153.665C185.609 148.24 187.605 142.783 188.961 137.295C190.318 131.805 190.996 126.185 190.996 120.436C190.996 100.243 183.932 83.0831 169.804 68.9555C155.677 54.8279 138.516 47.7641 118.323 47.7641C98.1304 47.7641 80.9889 54.8279 66.899 68.9555C52.809 83.0831 45.7641 100.243 45.7641 120.436C45.7641 126.314 46.4422 132.053 47.7984 137.656C49.1547 143.258 51.1891 148.594 53.9016 153.665L49.6068 157.62Z" fill="white"/>
</svg>
